<svg width="24" height="24" viewBox="0 0 24 24" fill="none" xmlns="http://www.w3.org/2000/svg">
<path d="M11.9992 17.2961C15.2517 17.2961 17.8977 14.6506 17.8977 11.3989C17.8959 9.83505 17.2739 8.33578 16.1681 7.22999C15.0623 6.12419 13.5631 5.50218 11.9992 5.50041C8.74751 5.50041 6.10207 8.14645 6.10207 11.3989C6.10461 12.8867 6.66724 14.319 7.67801 15.4108L7.06803 17.6865C7.03201 17.8208 7.03665 17.9628 7.08135 18.0945C7.12606 18.2262 7.20883 18.3417 7.31919 18.4264C7.42955 18.5111 7.56255 18.5611 7.70135 18.5702C7.84015 18.5792 7.97851 18.5469 8.09895 18.4773L10.4847 17.0988C10.9788 17.2301 11.4879 17.2964 11.9992 17.2961ZM10.0423 15.7305L8.8662 16.4101L9.14126 15.384C9.17433 15.2607 9.17317 15.1307 9.13793 15.0079C9.10268 14.8852 9.03467 14.7744 8.9412 14.6873C8.48718 14.2687 8.12531 13.7602 7.87861 13.1941C7.63192 12.6279 7.50581 12.0166 7.50832 11.3991C7.50866 10.4511 7.80905 9.52761 8.36647 8.76084C8.92388 7.99408 9.70971 7.42343 10.6113 7.13068C11.513 6.83793 12.4841 6.83809 13.3857 7.13115C14.2872 7.42421 15.0728 7.99512 15.63 8.76207C16.1871 9.52903 16.4872 10.4527 16.4872 11.4006C16.4872 12.3486 16.1872 13.2722 15.63 14.0392C15.0729 14.8062 14.2873 15.3771 13.3858 15.6702C12.4842 15.9633 11.5131 15.9635 10.6114 15.6707C10.5177 15.6402 10.4186 15.6297 10.3206 15.64C10.2225 15.6503 10.1277 15.681 10.0423 15.7303V15.7305ZM23.6155 11.901C23.6232 11.6133 23.6311 11.3158 23.6173 11.0061C23.5802 10.1407 23.2088 9.32342 22.5811 8.72643C21.9535 8.12944 21.1187 7.79929 20.2526 7.80548C18.8624 4.62497 15.6864 2.39648 11.9992 2.39648C8.31209 2.39648 5.13739 4.62492 3.74717 7.80544C2.88119 7.79929 2.0466 8.12933 1.41905 8.72609C0.791493 9.32285 0.419918 10.1398 0.382527 11.005C0.368746 11.3159 0.376668 11.6134 0.384308 11.9012C0.392418 12.2052 0.400762 12.5196 0.385152 12.8729C0.347931 13.7586 0.663471 14.623 1.26258 15.2764C1.86169 15.9298 2.69547 16.319 3.58109 16.3585C3.63353 16.361 3.68586 16.3622 3.73807 16.3622C4.17949 16.3625 4.61648 16.2741 5.02315 16.1025C5.19307 16.0313 5.32819 15.8962 5.39934 15.7262C5.4705 15.5563 5.47199 15.3652 5.4035 15.1942C5.39498 15.161 5.38199 15.1291 5.36487 15.0995C4.73492 13.9678 4.40431 12.6941 4.40436 11.3989C4.40436 7.21036 7.81142 3.80273 11.9992 3.80273C16.187 3.80273 19.5954 7.21055 19.5954 11.3989C19.6003 13.1718 18.983 14.8902 17.8509 16.2547C16.7189 17.6191 15.1439 18.5431 13.4006 18.8655C13.2169 18.4498 12.8938 18.1114 12.4871 17.9087C12.0804 17.706 11.6157 17.6517 11.1732 17.7553C10.7308 17.8589 10.3384 18.1138 10.064 18.476C9.78954 18.8382 9.65026 19.2849 9.67022 19.7388C9.69017 20.1928 9.86811 20.6255 10.1733 20.9623C10.4784 21.299 10.8917 21.5185 11.3415 21.5828C11.7913 21.6472 12.2495 21.5524 12.6368 21.3148C13.0242 21.0771 13.3163 20.7117 13.4628 20.2815C14.7012 20.0766 15.8832 19.6155 16.9332 18.9275C17.9831 18.2396 18.8778 17.34 19.5601 16.2863C19.7903 16.3366 20.0252 16.3621 20.2609 16.3622C20.3126 16.3622 20.3644 16.361 20.4163 16.3587C20.8552 16.3398 21.2862 16.2346 21.6845 16.0491C22.0828 15.8637 22.4407 15.6016 22.7377 15.2778C23.0346 14.954 23.265 14.5749 23.4154 14.1621C23.5659 13.7493 23.6336 13.3109 23.6146 12.872C23.599 12.5198 23.6074 12.2051 23.6155 11.901ZM3.64362 14.9537C3.13023 14.931 2.64679 14.7057 2.29931 14.3271C1.95184 13.9485 1.76869 13.4475 1.79004 12.9341C1.80781 12.5319 1.79839 12.177 1.79004 11.8638C1.78273 11.5884 1.77598 11.3283 1.78746 11.0662C1.80562 10.6487 1.95811 10.2482 2.22225 9.92425C2.48639 9.60034 2.84806 9.37038 3.25343 9.26859C2.81024 11.0908 2.94623 13.0059 3.6425 14.7472L3.64165 14.7475C3.66903 14.8173 3.69729 14.8867 3.72645 14.9558C3.69904 14.9557 3.67143 14.955 3.64362 14.9537ZM11.6179 20.1962C11.5105 20.1962 11.4054 20.1644 11.3161 20.1047C11.2268 20.045 11.1571 19.9602 11.116 19.861C11.0749 19.7617 11.0641 19.6525 11.085 19.5471C11.106 19.4417 11.1577 19.3449 11.2336 19.269C11.3096 19.193 11.4064 19.1412 11.5117 19.1202C11.6171 19.0992 11.7263 19.11 11.8256 19.1511C11.9249 19.1921 12.0097 19.2617 12.0694 19.3511C12.1292 19.4404 12.1611 19.5454 12.1611 19.6528V19.6538C12.1607 19.7977 12.1034 19.9356 12.0015 20.0373C11.8997 20.1389 11.7618 20.1961 11.6179 20.1962ZM22.2097 12.9331C22.2206 13.1877 22.1813 13.4419 22.094 13.6812C22.0066 13.9206 21.8729 14.1404 21.7006 14.3281C21.5282 14.5157 21.3206 14.6676 21.0895 14.775C20.8584 14.8823 20.6084 14.9431 20.3539 14.9538C20.3269 14.9551 20.2999 14.9557 20.273 14.9558C20.2742 14.9532 20.2744 14.9503 20.2736 14.9475C21.0412 13.1555 21.2071 11.1629 20.7463 9.26864C21.1519 9.37045 21.5137 9.60054 21.7779 9.92465C22.042 10.2488 22.1944 10.6495 22.2124 11.0673C22.2239 11.3283 22.217 11.5883 22.2097 11.8637C22.2014 12.1769 22.1919 12.5319 22.2097 12.9331ZM10.3564 11.33C10.3587 11.3529 10.3598 11.3759 10.3597 11.3989C10.3598 11.422 10.3587 11.4452 10.3564 11.4683C10.3541 11.4908 10.3504 11.5137 10.3461 11.5362C10.3419 11.5587 10.3358 11.5812 10.3293 11.6032C10.3227 11.6253 10.3147 11.6468 10.3058 11.6679C10.2969 11.689 10.2871 11.7101 10.2763 11.7303C10.2655 11.7504 10.2538 11.7701 10.2411 11.7893C10.2286 11.8085 10.215 11.827 10.2004 11.8447C10.1858 11.8629 10.1699 11.8798 10.1539 11.8962C10.1376 11.9125 10.1203 11.928 10.1024 11.9426C10.0846 11.9572 10.0658 11.9707 10.0471 11.9839C10.0279 11.9961 10.0082 12.0082 9.98754 12.019C9.96747 12.0299 9.94681 12.0396 9.92567 12.0481C9.90452 12.057 9.88293 12.0648 9.86098 12.0715C9.83895 12.0781 9.81645 12.0837 9.79395 12.0884C9.77148 12.093 9.7488 12.0964 9.72598 12.0987C9.67983 12.1031 9.63338 12.1031 9.58723 12.0987C9.56441 12.0964 9.54173 12.093 9.51926 12.0884C9.49676 12.0837 9.47426 12.0781 9.45223 12.0715C9.43028 12.0648 9.40869 12.057 9.38754 12.0481C9.3664 12.0396 9.34574 12.0299 9.32567 12.019C9.30504 12.0082 9.28535 11.9961 9.26614 11.9839C9.24739 11.9707 9.22864 11.9572 9.21082 11.9426C9.19287 11.928 9.17566 11.9125 9.15926 11.8962C9.14332 11.8798 9.12739 11.8629 9.11285 11.8447C9.09822 11.827 9.0846 11.8085 9.07207 11.7893C9.05957 11.7701 9.04785 11.7504 9.03692 11.7303C9.02614 11.7101 9.01629 11.689 9.00739 11.6679C8.99848 11.6468 8.99098 11.6253 8.98395 11.6032C8.97692 11.5812 8.97176 11.5587 8.96707 11.5362C8.95776 11.491 8.9532 11.445 8.95348 11.3989C8.95348 11.3759 8.95489 11.3529 8.95676 11.33C8.95864 11.307 8.96286 11.284 8.96707 11.2615C8.97129 11.239 8.97739 11.217 8.98395 11.195C8.99051 11.1729 8.99848 11.1514 9.00739 11.1303C9.01629 11.1092 9.02614 11.0881 9.03692 11.0679C9.05856 11.0274 9.08398 10.9889 9.11285 10.9531C9.12739 10.9353 9.14332 10.9179 9.15926 10.902C9.17566 10.8857 9.19287 10.8702 9.21082 10.8556C9.22864 10.8411 9.24739 10.827 9.26614 10.8143C9.28537 10.8016 9.30524 10.7899 9.32567 10.7792C9.34582 10.7684 9.36645 10.7586 9.38754 10.7497C9.40864 10.7412 9.43067 10.7332 9.45223 10.7267C9.47427 10.7199 9.49664 10.7143 9.51926 10.7098C9.6099 10.6914 9.70331 10.6914 9.79395 10.7098C9.81657 10.7143 9.83894 10.7199 9.86098 10.7267C9.88254 10.7332 9.90457 10.7412 9.92567 10.7497C9.94676 10.7581 9.96739 10.7684 9.98754 10.7792C10.008 10.7899 10.0278 10.8016 10.0471 10.8143C10.0658 10.827 10.0846 10.8411 10.1024 10.8556C10.1203 10.8702 10.1376 10.8857 10.1539 10.902C10.1699 10.9179 10.1858 10.9353 10.2004 10.9531C10.2292 10.9889 10.2547 11.0274 10.2763 11.0679C10.2871 11.0881 10.2969 11.1092 10.3058 11.1303C10.3147 11.1514 10.3222 11.1729 10.3293 11.195C10.3363 11.217 10.3414 11.2395 10.3461 11.2615C10.3508 11.2836 10.3541 11.3068 10.3564 11.3298V11.33ZM11.2968 11.3989C11.2967 11.3066 11.3148 11.2152 11.3501 11.1299C11.3853 11.0446 11.4371 10.9671 11.5023 10.9018C11.5675 10.8365 11.645 10.7847 11.7303 10.7493C11.8155 10.714 11.9069 10.6958 11.9992 10.6957H12.0005C12.1396 10.6959 12.2755 10.7372 12.391 10.8146C12.5065 10.8919 12.5966 11.0018 12.6497 11.1303C12.7028 11.2587 12.7166 11.4001 12.6894 11.5364C12.6622 11.6728 12.5952 11.798 12.4968 11.8963C12.3985 11.9946 12.2732 12.0615 12.1368 12.0885C12.0004 12.1156 11.8591 12.1017 11.7307 12.0484C11.6022 11.9952 11.4924 11.9051 11.4152 11.7894C11.338 11.6738 11.2968 11.5379 11.2968 11.3989ZM13.6433 11.4681C13.6411 11.445 13.64 11.4219 13.64 11.3987C13.64 11.3757 13.6411 11.3527 13.6433 11.3298C13.6457 11.3068 13.6494 11.2838 13.6536 11.2613C13.6579 11.2388 13.6639 11.2168 13.6705 11.1948C13.6771 11.1728 13.685 11.1512 13.694 11.1301C13.7024 11.109 13.7127 11.0879 13.723 11.0677C13.745 11.0273 13.7706 10.9889 13.7994 10.9529C13.814 10.9351 13.8299 10.9177 13.8458 10.9018C13.8622 10.8855 13.8794 10.87 13.8974 10.8554C13.915 10.8406 13.9335 10.8268 13.9527 10.8142C13.9719 10.8017 13.9916 10.7899 14.0118 10.779C14.0319 10.7682 14.053 10.7584 14.0741 10.7495C14.0952 10.7406 14.1172 10.7331 14.1388 10.7265C14.1608 10.7197 14.1832 10.7141 14.2058 10.7096C14.2737 10.6958 14.3432 10.6924 14.4121 10.6993C14.435 10.7016 14.4579 10.705 14.4805 10.7096C14.503 10.714 14.5252 10.7197 14.5471 10.7265C14.5691 10.7331 14.5911 10.741 14.6122 10.7495C14.6333 10.7579 14.6539 10.7682 14.6741 10.779C14.6945 10.7897 14.7144 10.8014 14.7336 10.8142C14.7524 10.8268 14.7711 10.8409 14.7889 10.8554C14.8069 10.8699 14.8239 10.8854 14.84 10.9018C14.8564 10.9177 14.8719 10.9351 14.8869 10.9529C14.901 10.9707 14.915 10.9895 14.9277 11.0087C14.9404 11.0278 14.9521 11.0475 14.9629 11.0677C14.9736 11.0879 14.9835 11.109 14.9924 11.1301C15.0012 11.1512 15.0089 11.1728 15.0154 11.1948C15.0224 11.2166 15.028 11.2388 15.0322 11.2613C15.0371 11.2839 15.0405 11.3068 15.0425 11.3298C15.045 11.3527 15.0462 11.3757 15.0463 11.3987C15.0462 11.4219 15.045 11.445 15.0425 11.4681C15.0405 11.4909 15.037 11.5136 15.0322 11.536C15.028 11.5587 15.0224 11.5811 15.0154 11.6031C15.0088 11.625 15.0012 11.6466 14.9924 11.6678C14.9835 11.6888 14.9736 11.7099 14.9629 11.7301C14.9521 11.7502 14.9404 11.7699 14.9277 11.7892C14.915 11.8084 14.901 11.8271 14.8869 11.8445C14.8719 11.8628 14.8564 11.8796 14.84 11.896C14.8239 11.9125 14.8069 11.928 14.7889 11.9424C14.7711 11.957 14.7524 11.9706 14.7336 11.9832C14.7144 11.9961 14.6945 12.008 14.6741 12.0188C14.654 12.0297 14.6334 12.0394 14.6122 12.0479C14.591 12.0569 14.5692 12.0647 14.5471 12.0713C14.5255 12.0779 14.503 12.0835 14.4805 12.0882C14.4353 12.0974 14.3893 12.102 14.3432 12.1018C14.32 12.1019 14.2968 12.1008 14.2738 12.0985C14.251 12.0962 14.2283 12.0928 14.2058 12.0882C14.1833 12.0835 14.1608 12.0779 14.1388 12.0713C14.1168 12.0646 14.0953 12.0568 14.0741 12.0479C14.0528 12.0394 14.032 12.0297 14.0118 12.0188C13.9916 12.0081 13.9719 11.9959 13.9527 11.9832C13.9335 11.9707 13.915 11.9571 13.8974 11.9424C13.8794 11.9278 13.8622 11.9124 13.8458 11.896C13.8299 11.8796 13.814 11.8628 13.7994 11.8445C13.7848 11.8268 13.7712 11.8084 13.7586 11.7892C13.746 11.7699 13.7338 11.7502 13.723 11.7301C13.7122 11.7099 13.7024 11.6888 13.694 11.6678C13.685 11.6466 13.6772 11.625 13.6705 11.6031C13.6639 11.581 13.6583 11.5585 13.6536 11.536C13.6489 11.5135 13.6457 11.4906 13.6433 11.4681Z" fill="#242424"/>
</svg>
