<svg width="3" height="16" viewBox="0 0 3 16" fill="none" xmlns="http://www.w3.org/2000/svg">
<path d="M1.5 12.5C2.32843 12.5 3 13.1716 3 14C3 14.8284 2.32843 15.5 1.5 15.5C0.671573 15.5 -2.93554e-08 14.8284 -6.55671e-08 14C-1.01779e-07 13.1716 0.671573 12.5 1.5 12.5Z" fill="#434447"/>
<path d="M1.5 6.5C2.32843 6.5 3 7.17157 3 8C3 8.82843 2.32843 9.5 1.5 9.5C0.671573 9.5 -2.91624e-07 8.82843 -3.27835e-07 8C-3.64047e-07 7.17157 0.671572 6.5 1.5 6.5Z" fill="#434447"/>
<path d="M3 2C3 1.17157 2.32843 0.5 1.5 0.5C0.671572 0.5 -6.26315e-07 1.17157 -5.90104e-07 2C-5.53892e-07 2.82843 0.671572 3.5 1.5 3.5C2.32843 3.5 3 2.82843 3 2Z" fill="#434447"/>
</svg>
