<svg width="28" height="28" viewBox="0 0 28 28" fill="none" xmlns="http://www.w3.org/2000/svg">
<rect width="28" height="28" rx="5" fill="#28A745"/>
<path d="M20 16.3324C19.9989 15.1746 19.6629 14.0419 19.0325 13.0708C18.4021 12.0997 17.5041 11.3317 16.447 10.8596C15.3899 10.3874 14.2187 10.2311 13.0748 10.4097C11.9308 10.5882 10.863 11.0939 10 11.8658L8 13.6658" stroke="white" stroke-width="1.33" stroke-linecap="round" stroke-linejoin="round"/>
<path d="M8 9.66602V13.666H12" stroke="white" stroke-width="1.33" stroke-linecap="round" stroke-linejoin="round"/>
<path d="M13.9997 16.9993C14.3679 16.9993 14.6663 16.7009 14.6663 16.3327C14.6663 15.9645 14.3679 15.666 13.9997 15.666C13.6315 15.666 13.333 15.9645 13.333 16.3327C13.333 16.7009 13.6315 16.9993 13.9997 16.9993Z" stroke="white" stroke-width="1.33" stroke-linecap="round" stroke-linejoin="round"/>
</svg>
