<svg width="16" height="16" viewBox="0 0 16 16" fill="none" xmlns="http://www.w3.org/2000/svg">
<path d="M14 11.3324C13.9989 10.1746 13.6629 9.04188 13.0325 8.07079C12.4021 7.09969 11.5041 6.33174 10.447 5.85955C9.38987 5.38737 8.2187 5.23112 7.07476 5.40966C5.93082 5.5882 4.86297 6.0939 4 6.86576L2 8.66576" stroke="#28A745" stroke-width="1.33" stroke-linecap="round" stroke-linejoin="round"/>
<path d="M2 4.66602V8.66602H6" stroke="#28A745" stroke-width="1.33" stroke-linecap="round" stroke-linejoin="round"/>
<path d="M7.99967 11.9993C8.36786 11.9993 8.66634 11.7009 8.66634 11.3327C8.66634 10.9645 8.36786 10.666 7.99967 10.666C7.63148 10.666 7.33301 10.9645 7.33301 11.3327C7.33301 11.7009 7.63148 11.9993 7.99967 11.9993Z" stroke="#28A745" stroke-width="1.33" stroke-linecap="round" stroke-linejoin="round"/>
</svg>
