<svg width="16" height="16" viewBox="0 0 16 16" fill="none" xmlns="http://www.w3.org/2000/svg">
<path d="M8 1.33398C7.46957 1.33398 6.96086 1.5447 6.58579 1.91977C6.21071 2.29484 6 2.80355 6 3.33398V8.00065C6 8.53108 6.21071 9.03979 6.58579 9.41487C6.96086 9.78994 7.46957 10.0007 8 10.0007C8.53043 10.0007 9.03914 9.78994 9.41421 9.41487C9.78929 9.03979 10 8.53108 10 8.00065V3.33398C10 2.80355 9.78929 2.29484 9.41421 1.91977C9.03914 1.5447 8.53043 1.33398 8 1.33398Z" stroke="#434447" stroke-width="1.33333" stroke-linecap="round" stroke-linejoin="round"/>
<path d="M12.6673 6.66602V7.99935C12.6673 9.23703 12.1757 10.424 11.3005 11.2992C10.4253 12.1744 9.23833 12.666 8.00065 12.666C6.76297 12.666 5.57599 12.1744 4.70082 11.2992C3.82565 10.424 3.33398 9.23703 3.33398 7.99935V6.66602" stroke="#434447" stroke-width="1.33333" stroke-linecap="round" stroke-linejoin="round"/>
<path d="M8 13V15" stroke="#434447" stroke-width="1.33333" stroke-linecap="round" stroke-linejoin="round"/>
</svg>
